<svg width="454" height="454" viewBox="0 0 454 454" fill="none" xmlns="http://www.w3.org/2000/svg">
<rect x="181" width="21" height="61" fill="white"/>
<rect x="181" y="60.4005" width="23" height="154.881" transform="rotate(-32.626 181 60.4005)" fill="white"/>
<rect x="178" y="178" width="106" height="23" fill="white"/>
<rect x="178" y="201" width="20" height="49" fill="white"/>
<rect x="114.17" y="263.949" width="81.6635" height="23" transform="rotate(-25.3384 114.17 263.949)" fill="white"/>
<rect x="120.848" y="265" width="85.4909" height="18" transform="rotate(33.1698 120.848 265)" fill="white"/>
<rect x="175" y="312" width="17" height="47" fill="white"/>
<rect x="70.1712" y="389.43" width="122.391" height="21" transform="rotate(-23.3097 70.1712 389.43)" fill="white"/>
<rect x="70" y="387" width="27" height="67" fill="white"/>
<rect width="195" height="236" fill="white"/>
<rect x="195" y="145" width="64" height="49" fill="white"/>
<rect x="195" y="110" width="43" height="35" fill="white"/>
<rect x="172" y="78" width="43" height="35" fill="white"/>
<rect y="236" width="172" height="24" fill="white"/>
<rect y="260" width="131" height="24" fill="white"/>
<rect y="284" width="149" height="18" fill="white"/>
<rect y="299" width="172" height="66" fill="white"/>
<rect x="166" y="308" width="17" height="56" fill="white"/>
<rect y="365" width="149" height="12" fill="white"/>
<rect y="375" width="128" height="12" fill="white"/>
<rect y="387" width="79" height="67" fill="white"/>
<rect x="265.336" y="236" width="63" height="24.6368" transform="rotate(60 265.336 236)" fill="white"/>
<rect x="244.747" y="334.878" width="63" height="23.0872" transform="rotate(-60 244.747 334.878)" fill="white"/>
<rect x="330.856" y="216" width="85" height="23.6948" transform="rotate(60 330.856 216)" fill="white"/>
<rect x="310.323" y="352.757" width="85" height="23.7102" transform="rotate(-60 310.323 352.757)" fill="white"/>
<rect x="366.581" y="374.587" width="113.838" height="24.8933" transform="rotate(-60 366.581 374.587)" fill="white"/>
<rect x="391.861" y="194.801" width="107" height="26.3978" transform="rotate(60 391.861 194.801)" fill="white"/>
</svg>
